<?xml version="1.0" encoding="UTF-8"?>
<svg id="_レイヤー_2" data-name="レイヤー 2" xmlns="http://www.w3.org/2000/svg" viewBox="0 0 422.76 404.26">
  <defs>
    <style>
      .cls-1 {
        fill: #fff;
      }

      .cls-2 {
        stroke-width: 19.61px;
      }

      .cls-2, .cls-3, .cls-4, .cls-5, .cls-6 {
        stroke: #000;
        stroke-miterlimit: 10;
      }

      .cls-2, .cls-3, .cls-4, .cls-6 {
        fill: none;
      }

      .cls-2, .cls-3, .cls-6 {
        stroke-linecap: round;
      }

      .cls-3 {
        stroke-width: 18.23px;
      }

      .cls-4 {
        stroke-width: 9.55px;
      }

      .cls-5 {
        stroke-width: 9.54px;
      }

      .cls-6 {
        stroke-width: 18.76px;
      }
    </style>
  </defs>
  <g id="_レイヤー_2-2" data-name="レイヤー 2">
    <g>
      <g>
        <g>
          <path class="cls-1" d="M211.38,331.46c-61.21,0-111-49.79-111-111s49.79-111,111-111,111,49.79,111,111-49.79,111-111,111Z"/>
          <path d="M211.38,116.96c57.07,0,103.5,46.43,103.5,103.5s-46.43,103.5-103.5,103.5-103.5-46.43-103.5-103.5,46.43-103.5,103.5-103.5M211.38,101.96c-65.45,0-118.5,53.05-118.5,118.5s53.05,118.5,118.5,118.5,118.5-53.05,118.5-118.5-53.05-118.5-118.5-118.5h0Z"/>
        </g>
        <rect x="160.31" y="84.17" width="101" height="29"/>
        <line class="cls-4" x1="210.81" y1="103.37" x2="210.81" y2="17.37"/>
        <line class="cls-2" x1="116.85" y1="330.68" x2="98.7" y2="360.68"/>
        <line class="cls-2" x1="305.84" y1="330.68" x2="324" y2="360.68"/>
        <line class="cls-3" x1="211.53" y1="395.14" x2="210.79" y2="361.98"/>
        <path class="cls-5" d="M275.21,219.55c-36.41-9.28-56.98-31.21-65.58-64.61-7.65,30.31-26.54,56.26-64.42,64.42,1.07.23,2.12.48,3.17.74.3.07.59.15.89.23,35.18,9.1,53,34.25,60.37,63.46,8.03-31.22,25.23-52.08,57.16-62.25,2.75-.77,5.55-1.44,8.41-1.98-.25-.06-.49-.13-.74-.19"/>
      </g>
      <path class="cls-6" d="M9.38,211.38C9.38,99.82,99.82,9.38,211.38,9.38s202,90.44,202,202"/>
    </g>
  </g>
</svg>