<?xml version="1.0" encoding="UTF-8"?>
<svg id="_レイヤー_2" xmlns="http://www.w3.org/2000/svg" version="1.1" viewBox="0 0 514.3 487">
  <!-- Generator: Adobe Illustrator 29.3.1, SVG Export Plug-In . SVG Version: 2.1.0 Build 151)  -->
  <defs>
    <style>
      .st0 {
        stroke-linecap: square;
        stroke-width: 20px;
      }

      .st0, .st1, .st2, .st3, .st4 {
        fill: none;
      }

      .st0, .st1, .st3, .st4, .st5 {
        stroke: #000;
        stroke-miterlimit: 10;
      }

      .st1 {
        stroke-width: 19.6px;
      }

      .st1, .st3 {
        stroke-linecap: round;
      }

      .st3 {
        stroke-width: 18.2px;
      }

      .st6, .st7 {
        isolation: isolate;
      }

      .st4 {
        stroke-width: 9.6px;
      }

      .st5 {
        stroke-width: 9.5px;
      }

      .st7 {
        font-family: PalatinoLinotype-Bold, 'Palatino Linotype';
        font-size: 100px;
        font-weight: 700;
      }
    </style>
  </defs>
  <g id="_レイヤー_2-2">
    <g>
      <path class="st0" d="M64,293.8c0-106.6,86.4-193,193-193s193,86.4,193,193"/>
      <g class="st6">
        <text class="st7" transform="translate(72.7 191.8) rotate(-51.9)"><tspan x="0" y="0">T</tspan></text>
      </g>
      <g class="st6">
        <text class="st7" transform="translate(108.6 142.2) rotate(-33.1)"><tspan x="0" y="0">O</tspan></text>
      </g>
      <g class="st6">
        <text class="st7" transform="translate(178.2 94.8) rotate(-8)"><tspan x="0" y="0">M</tspan></text>
      </g>
      <g class="st6">
        <text class="st7" transform="translate(277.6 82.6) rotate(16.9)"><tspan x="0" y="0">O</tspan></text>
      </g>
      <g class="st6">
        <text class="st7" transform="translate(358.9 109) rotate(38.7)"><tspan x="0" y="0">R</tspan></text>
      </g>
      <g class="st6">
        <text class="st7" transform="translate(418.2 160.9) rotate(55.8)"><tspan x="0" y="0">I</tspan></text>
      </g>
      <g>
        <path class="st2" d="M257.6,417.4c-61.2,0-111-49.8-111-111s49.8-111,111-111,111,49.8,111,111-49.8,111-111,111Z"/>
        <path d="M257.6,202.9c57.1,0,103.5,46.4,103.5,103.5s-46.4,103.5-103.5,103.5-103.5-46.4-103.5-103.5,46.4-103.5,103.5-103.5M257.6,187.9c-65.4,0-118.5,53.1-118.5,118.5s53.1,118.5,118.5,118.5,118.5-53,118.5-118.5-53-118.5-118.5-118.5h0Z"/>
      </g>
      <rect x="206.5" y="170.1" width="101" height="29"/>
      <line class="st4" x1="257" y1="189.3" x2="257" y2="103.3"/>
      <line class="st1" x1="163" y1="416.6" x2="144.9" y2="446.6"/>
      <line class="st1" x1="352" y1="416.6" x2="370.2" y2="446.6"/>
      <line class="st3" x1="257.7" y1="477.9" x2="257" y2="447.9"/>
      <path class="st5" d="M321.4,305.5c-36.4-9.3-57-31.2-65.6-64.6-7.6,30.3-26.5,56.3-64.4,64.4,1.1.2,2.1.5,3.2.7.3,0,.6.1.9.2,35.2,9.1,53,34.2,60.4,63.5,8-31.2,25.2-52.1,57.2-62.2,2.8-.8,5.5-1.4,8.4-2-.2,0-.5-.1-.7-.2"/>
    </g>
  </g>
</svg>