<?xml version="1.0" encoding="UTF-8"?>
<svg id="_レイヤー_1" data-name="レイヤー_1" xmlns="http://www.w3.org/2000/svg" version="1.1" xmlns:xlink="http://www.w3.org/1999/xlink" viewBox="0 0 226.8 226.8">
  <!-- Generator: Adobe Illustrator 29.3.1, SVG Export Plug-In . SVG Version: 2.1.0 Build 151)  -->
  <defs>
    <style>
      .st0 {
        stroke-width: 7px;
      }

      .st0, .st1, .st2, .st3, .st4 {
        stroke: #43403f;
        stroke-linejoin: round;
      }

      .st0, .st1, .st3 {
        fill: none;
      }

      .st5 {
        opacity: .7;
      }

      .st1 {
        stroke-width: 4.6px;
      }

      .st2 {
        stroke-width: 6.2px;
      }

      .st2, .st6, .st4, .st7 {
        fill: #43403f;
      }

      .st2, .st4 {
        stroke-linecap: round;
      }

      .st3 {
        stroke-width: 6px;
      }

      .st4 {
        stroke-width: 4px;
      }

      .st7 {
        display: none;
      }
    </style>
  </defs>
  <image class="st5" width="1102" height="766" transform="translate(0 31) scale(.2 .2)" xlink:href="chan.png"/>
  <rect class="st7" x="59.3" y="5.1" width="108.3" height="11.2"/>
  <path class="st6" d="M87.8,16.4c0,22,42.4,31.7,51,0h-51Z"/>
  <path class="st0" d="M113.4,33.6v153.7s-13.8-19.7-21.3-25.7c-7.1-5.6-23.1-5.7-29.8-.3-5.6,5.6-11.4,13.6-15.2,16.1s-26.6,10.2-26.7-20.3"/>
  <path class="st0" d="M113.3,187.3s13.8-19.7,21.3-25.7c7.1-5.6,23.1-5.7,29.8-.3,5.6,5.6,11.4,13.6,15.2,16.1s26.6,10.2,26.7-20.3"/>
  <path class="st4" d="M2.4,142.3c0-.2,36.8,0,36.8,0-1.5,16.3-27.6,29.6-36.8,0Z"/>
  <path class="st2" d="M85,186.6c0-.3,56.7,0,56.7,0-2.4,25.2-42.5,45.7-56.7,0Z"/>
  <path class="st1" d="M14.3,142.3v-25.2h12.9v25.2h-12.9Z"/>
  <path class="st3" d="M20.7,91.2c-11,11.8-7,16.9.2,22.1,7.2-5.2,10.8-10.3-.2-22.1Z"/>
  <path class="st4" d="M187.6,142.3c0-.2,36.8,0,36.8,0-1.5,16.3-27.6,29.6-36.8,0Z"/>
  <path class="st1" d="M199.5,142.3v-25.2h12.9v25.2h-12.9Z"/>
  <path class="st3" d="M205.9,91.2c-11,11.8-7,16.9.2,22.1,7.2-5.2,10.8-10.3-.2-22.1Z"/>
  <path class="st4" d="M58.2,132.4c0-.2,36.8,0,36.8,0-1.5,16.3-27.6,29.6-36.8,0Z"/>
  <path class="st1" d="M70.1,132.4v-25.2h12.9v25.2h-12.9Z"/>
  <path class="st3" d="M76.5,81.3c-11,11.8-7,16.9.2,22.1,7.2-5.2,10.8-10.3-.2-22.1Z"/>
  <path class="st4" d="M131.5,132.4c0-.2,36.8,0,36.8,0-1.5,16.3-27.6,29.6-36.8,0Z"/>
  <path class="st1" d="M143.5,132.4v-25.2h12.9v25.2h-12.9Z"/>
  <path class="st3" d="M149.9,81.3c-11,11.8-7,16.9.2,22.1,7.2-5.2,10.8-10.3-.2-22.1Z"/>
  <line class="st3" x1="76.5" y1="145.6" x2="76.5" y2="157.2"/>
  <line class="st3" x1="149.9" y1="145.6" x2="149.9" y2="157.2"/>
</svg>