<?xml version="1.0" encoding="UTF-8"?>
<svg id="_レイヤー_2" xmlns="http://www.w3.org/2000/svg" version="1.1" viewBox="0 0 1048.8 1048.8">
  <!-- Generator: Adobe Illustrator 29.3.1, SVG Export Plug-In . SVG Version: 2.1.0 Build 151)  -->
  <defs>
    <style>
      .st0 {
        stroke-width: 28.6px;
      }

      .st0, .st1, .st2 {
        stroke: #4b4b4b;
        stroke-miterlimit: 10;
      }

      .st0, .st2 {
        fill: #282626;
      }

      .st1 {
        fill: none;
        stroke-width: 16px;
      }

      .st2 {
        stroke-width: 28.8px;
      }

      .st3 {
        fill: #4b4b4b;
      }
    </style>
  </defs>
  <g id="_レイヤー_1-2">
    <g>
      <path class="st3" d="M4.7,320.5l307.9,177.7c81.2-1.5,102.6-110.3,70.5-137.9S27.7,259.3,27.7,259.3c-32.2,10.7-30.6,39.8-23,61.3h0Z"/>
      <path class="st3" d="M292.7,530.9l-254.3,248.2c6.1,38.8,31.7,38.8,31.7,38.8,0,0,279.8-149.1,304.3-164.4s8.2-119.5-81.7-122.6h0Z"/>
      <path class="st3" d="M462.2,663.7l120.5,255.3c17.4,8.2,39.8-5.1,41.9-22.5,0,0-15.3-234.9-21.5-274.7s-156.3-23.5-140.9,41.9h0Z"/>
      <path class="st3" d="M662.4,600.3l369.7,32.8c32.7-18.4,7.2-52.1,7.2-52.1,0,0-339.1-124.6-340.1-124.6-33.7,0-58.2,107.1-36.8,143.9h0Z"/>
      <path class="st3" d="M530.7,437c47,46,102.1,8.2,107.2,0l145-269.7c4.1-23.5-33.7-49-51.1-36.8,0,0-226.7,208.3-225.7,207.3s2-2,1-1l-1,1s15.3-22.5,0,0-9.2,87.8,24.5,99.1h0Z"/>
      <path class="st3" d="M497.6,427.8c-105.5-12.6-119.8,145.4,6.8,135.8,101.8-20.9,70.1-131.7-6.8-135.8h0Z"/>
      <line class="st1" x1="487.5" y1="334.8" x2="491.9" y2="429.8"/>
      <line class="st1" x1="562.9" y1="507.4" x2="657.9" y2="524.7"/>
      <line class="st1" x1="353" y1="431.6" x2="441.8" y2="469.5"/>
      <line class="st1" x1="500.7" y1="534" x2="530.1" y2="626"/>
      <line class="st1" x1="348.6" y1="578.1" x2="431.7" y2="528.8"/>
      <path class="st2" d="M396.9,404.3h0c5.4,38.3-30.6,83.5-30.6,83.5"/>
      <path class="st2" d="M664.3,481.3h0c-25.2,29.3-19.4,86.8-19.4,86.8"/>
      <path class="st0" d="M568.8,596.8h0c-43,1.5-86.1,21.6-86.1,21.6"/>
      <path class="st0" d="M384.7,602.4h0c-9.3-44.9-56.4-68.5-56.4-68.5"/>
      <path class="st3" d="M489.5,378.8c-59.7-7.7-83.9-30.6-92.1-92.7,24.8-50.6,95.4-76.6,145.5-27.6,30.9,73.5-53.4,120.3-53.4,120.3h0Z"/>
    </g>
  </g>
</svg>