<?xml version="1.0" encoding="UTF-8"?>
<svg id="_レイヤー_2" xmlns="http://www.w3.org/2000/svg" version="1.1" viewBox="0 0 361.3 361.3">
  <!-- Generator: Adobe Illustrator 29.3.1, SVG Export Plug-In . SVG Version: 2.1.0 Build 151)  -->
  <defs>
    <style>
      .st0 {
        fill: #fff;
      }

      .st1, .st2, .st3 {
        fill: none;
      }

      .st2 {
        stroke-linejoin: round;
      }

      .st2, .st3 {
        stroke: #4b4b4b;
        stroke-width: 10px;
      }

      .st3 {
        stroke-miterlimit: 10;
      }

      .st4 {
        fill: #4b4b4b;
      }
    </style>
  </defs>
  <g id="_レイヤー_1-2">
    <g>
      <g>
        <path class="st4" d="M69.5,108.9"/>
        <path class="st0" d="M128,30c-7,1-14.8,2.1-20.2-3.5,4.4-6.2,18.1-3.3,20.2,3.5Z"/>
        <path class="st4" d="M278.9,27.5c-15-6.3-26-1.8-40.3,7.5-1.8-8.6,11.2-33.2,22.9-34,8.8-.6,7.1,3.9,10.7,8,6.5,7.4,23.6,13.5,21.3,25.9l-14.6-7.4Z"/>
        <g>
          <path class="st4" d="M262.9,126.3c-12.2-3.1-44.4-5.3-30.2-24.5,15.4-16.2,56.2-7.9,75.6-.3-18.6-12.5-58.4-18.7-76.9-7.1,2.4-7.4.2-14.3,0-21.4-.2-5.6.8-12.9.1-18.1-.2-1.3-3.4-4.2-3.4-8.9s6.4-8.8.8-10.3l-3.3,1.9-4.7-8.6c29-30.7-35.3-42-22.2-6,2.6,4.2,8.6,5.6,5.4,12.4-3.6,5-8.8-12.6-10.9,5.8,0,2.4,2.3,3.6,2.3,5.9-2,7.9-3.6,6.6,2.6,12.5.6,80.7-.4,168.8.6,249.8-8.7,3.1-7.2,5.2-3.3,13.5-.7.5-7.8-2.9-8.2-3.3-1.3-1.3-.6-5.5-5.6-4.7,3.5-5-2.7-6.2-3.7-7.9-.5-.8.7-2.8.4-4.3-3.5-5.1-5-10.9-4.8-17,0-.1-.1-.2,0-.4,0,0,0-.2.1-.3,0-.3,0-.7,0-1,0,0,.2-.2.2-.2,0-.1-.1-.2,0-.4,0-.3.1-.6.2-.8,0-.4-.2-.8-.3-1.3-.1-.7,0-1.5-.3-2.2-.1-.7-.3-1.3-.2-1.9h0c0,0,0,0,0,0,0,0,0,0,0,0,0,0,0,0,0,0,1.1-3-3.2-3.9-3.3-4.6,1.2-6.2,4.3-4.7.3-11.7,0-1.9,3.3-3.3,3.1-7.2,0-1.9-2.4-1-2.4-2.9-.1-3.7,3.3-6,2.3-11l-3.2-1.5c2.8.8,4.9-10.3,4.2-10.9-.6-.5-3.5.9-3.1-1,.7-.3,1.4-.4,2.1-.5,0-.1,0-.3,0-.4,0-.3.2-.5.5-.5,0,0,0,0,0,0,0-.8.2-1.6.3-2.3,0-.1,0-.2,0-.3,0,0,0,0,0,0,0,0,0-.1,0-.2v-.6c0-.1,0-.2,0-.3v-5.9h-3.2l3.1-11h-3.1c-.3-5.3,4.2-7.2,3.3-12.4l-3.3-1c1.3-6.8,8.1-7.9,1.2-14.2-.7-2.6,5-7.5-.1-11.3.4-.2.7-.4,1.1-.5,0,0,0-.1,0-.2.1-1.5.7-3,1.4-4.4.6-3.2-2.5-6.8-2.5-8.4,1.9-5.7,3.7-5.7,0-12,0-1.9,3.6-3.7,3.2-6.9-.2-2.2-3.2-3.9-3.2-6.1.1-2.2,4.1-3.1,3.3-9-.4-2.5-3.8-1.7-3.3-3.9,3.8-2.4,2.2-11.3,4-15,0-1.1,0-2.2.2-3.2-.8-1.8-3-3.2-3.1-4.8.8-5.4,2.9-5.4-1.9-10.2.4-5.5,2.8-5.8-2.9-10.3-.9-1.8.5-3.3,0-5-10.7-13.2-16.6-33.3-32.2-43.7-13.4-10.1-34-10.8-40.8,6.2-4.5,4.4-18.1,8.8-17,16l-1.3,2.5c-4.6,2.9-2.8,1.5-2.6,7.8,10.1-17.9,37.6-17.4,49.2-9.9,6.9-.2,13.7,13.3,17,19,3.6,8.2,2,16.2.4,24.8-.5-7.2-1.2-16.1-3.8-18.6,1.5,9-4.4,40.8-.5,48.3,2,4,9,4.1,8.8,11.7,0,8.4-7,11.8-14.9,13.5,2.1,4.4,1.4,17.4,1,21.3-.3,1.1-2.7-.2-2.1,2.1l2.2,1.1c-1.9,8.5-2.2,19.8.7,28,.2,2.4-2.6,5.4-1.8,8.3l2.1-.5c-.3,3.4-4.8,10.5,0,11.9l-3.2,11.5c-6.7-3.8-13.2-9.5-21.8-8-3.2.6-3.4,3.8-2.1,4,48.1-5.4-27.5,152.7,79.2,131.2,2.8-.8,5.1-6.4,27,.6l10.1,2.5c54.8,2.5,49.2-46.9,43.4-48.5,3.5-5.1,1.1-10.6,1.1-17,.2-6,2.3-15,1.8-20.8-8.8-14.1-4.2-27-1.8-42,.2-14.5-3.6-21,3.1-35.1,3.3-22.6-12-44.3-6.8-67.3ZM107.3,26.5c4.4-6.2,18.1-3.3,20.2,3.5-7,1-14.8,2.1-20.2-3.5ZM141.9,97.1c-.2-1.4-.4-3.7-.6-6.4.5,3.2,1.4,7.9.6,6.4ZM161.5,337.9c-3.8-1.9-11.4-14-2.8-15.4,5.4,5.4,12.8,12.9,20.9,13.9-2.7,4.3-14.3,3.4-18.1,1.5Z"/>
          <path class="st0" d="M180.1,336.4c-2.6,4.3-14.3,3.3-18.1,1.5s-11.4-14-2.8-15.4c5.4,5.4,12.7,12.9,20.9,13.9h0Z"/>
        </g>
      </g>
      <path class="st3" d="M257.9,130.4c39.5,1.7,62.6-9.5,47.7-32.3-11.6-9.9,9.9-53.8-22-74"/>
      <path class="st3" d="M308.3,103.2c-21.2-16.6-62.3-15-81.4-.3,0,0,1.9-9.8,2.4-15.3-3.5-27.6-4.3-45.3,17.4-64.4"/>
      <path class="st2" d="M92.5,36.1c-41.9,9.5-16.7,73.7-26,82.2-5.7,1.9-24.8,21.5,26,28.5,40.8,3.1,68.7-14,46.6-27.1-1.4-6.6-.3-30.5-.3-30.5,1.7-25.5-3.1-44-17.7-54.2"/>
      <path class="st3" d="M69.7,100.5c-18.6-.8-34.4,13.8-31.7,54.8,1.3,12.3-2.4,20.9-3.9,26.2-3.7,8.6,6.4,18.9,34.5,21.1,22.4,0,33.7-5.2,37.9-14.7,2.3-10.6-27.9-14.8-38.8-14.6-2.7.4-18.4-1.5-33.7,8.2"/>
      <path class="st3" d="M103.5,147.2s-2.6,11.1-4.2,19.3c.7,8.8,5,15.6,5,15.6"/>
      <path class="st3" d="M66.5,118.3c14-10.5,57.2-9.3,72.6,1.4"/>
      <path class="st1" d="M0,0v361.3h361.3V0H0Z"/>
    </g>
  </g>
  <path class="st4" d="M176.4,98.4"/>
</svg>